<?xml version="1.0" standalone="no"?>
<svg xmlns="http://www.w3.org/2000/svg" viewBox="0 0 122 74" width="122" height="74"><g fill="#000000" color="#000000" transform="translate(38.889 0) scale(0.9361703) "><svg width="47.0" height="46.0" x="0.0" y="0.0" viewBox="0 0 47 46"><path fill="currentColor" fill-rule="nonzero" d="M44.78 1.64c-3.27-3.27-12.02-.08-21.36 7.22-9.34-7.3-18.09-10.5-21.36-7.22C-1.22 4.91 1.98 13.66 9.27 23 1.98 32.34-1.22 41.09 2.06 44.37c3.27 3.27 12.02.08 21.36-7.22 9.34 7.29 18.09 10.49 21.36 7.22 3.27-3.27.08-12.02-7.22-21.36 7.3-9.35 10.5-18.1 7.22-21.37zm-3.69 2.48c.69 0 .98.14 1.02.18.19.19.68 2.33-1.68 7.26-1.28 2.67-3.1 5.54-5.31 8.44-1.3-1.51-2.7-3.02-4.2-4.51-1.49-1.49-3-2.89-4.51-4.19 6.23-4.72 11.69-7.18 14.68-7.18zM32.71 23a80.65 80.65 0 0 1-9.29 9.29 82.406 82.406 0 0 1-4.84-4.45 80.65 80.65 0 0 1-4.45-4.83 79.34 79.34 0 0 1 4.45-4.84 84.12 84.12 0 0 1 4.83-4.46 79.34 79.34 0 0 1 9.3 9.29zM4.54 5.33c0-.69.14-.98.18-1.02.19-.19 2.33-.68 7.26 1.69 2.67 1.28 5.54 3.1 8.44 5.31a87.109 87.109 0 0 0-4.51 4.2c-1.49 1.49-2.89 3-4.19 4.51C7 13.78 4.54 8.32 4.54 5.33zm1.21 36.55c-.69 0-.99-.15-1.02-.18-.19-.19-.68-2.33 1.69-7.26 1.28-2.67 3.1-5.54 5.31-8.44 1.31 1.51 2.71 3.02 4.2 4.51 1.49 1.49 3 2.89 4.51 4.19-6.24 4.73-11.7 7.18-14.69 7.18zm36.55-1.21c0 .69-.15.98-.18 1.02-.19.19-2.33.68-7.26-1.68-2.67-1.28-5.54-3.1-8.44-5.31 1.51-1.3 3.02-2.7 4.51-4.2 1.49-1.49 2.89-3 4.2-4.51 4.71 6.23 7.17 11.69 7.17 14.68z"></path></svg></g><path fill="#ffffff" fill-rule="nonzero" d="M6.24 17.47L6.24 17.47Q5.02 17.47 3.85 17.04Q2.69 16.61 1.92 15.86L1.92 15.86L1.54 17.28L0.48 17.28L0 12.10L1.37 11.98Q2.09 13.94 3.30 14.94Q4.51 15.94 6.17 15.94L6.17 15.94Q7.18 15.94 7.87 15.61Q8.57 15.29 8.93 14.66Q9.29 14.04 9.29 13.18L9.29 13.18Q9.29 11.86 8.45 11.06Q7.61 10.27 5.52 9.60L5.52 9.60Q3.72 9.02 2.64 8.35Q1.56 7.68 1.08 6.78Q0.60 5.88 0.60 4.63L0.60 4.63Q0.60 3.60 0.97 2.75Q1.34 1.90 2.02 1.28Q2.69 0.67 3.64 0.34Q4.58 0 5.74 0L5.74 0Q6.72 0 7.67 0.34Q8.62 0.67 9.29 1.25L9.29 1.25L9.60 0L10.73 0L11.26 4.85L9.91 5.04Q9.36 3.14 8.35 2.23Q7.34 1.32 5.81 1.32L5.81 1.32Q4.51 1.32 3.72 2.04Q2.93 2.76 2.93 3.96L2.93 3.96Q2.93 4.75 3.28 5.33Q3.62 5.90 4.44 6.37Q5.26 6.84 6.65 7.32L6.65 7.32Q8.02 7.78 8.98 8.28Q9.94 8.78 10.51 9.37Q11.09 9.96 11.35 10.68Q11.62 11.40 11.62 12.34L11.62 12.34Q11.62 13.82 10.92 14.99Q10.22 16.15 9.01 16.81Q7.80 17.47 6.24 17.47ZM20.66 17.14L18.02 17.14L15.07 7.56Q14.90 6.91 14.71 6.68Q14.52 6.46 14.02 6.34L14.02 6.34L13.18 6.14L13.42 4.97L19.06 4.97L19.06 6.07L17.90 6.24Q17.45 6.31 17.35 6.53Q17.26 6.74 17.42 7.44L17.42 7.44L19.54 15.14L19.66 15.14L22.44 4.97L25.01 4.97L27.70 15.10L27.82 15.10L29.90 7.61Q30.10 6.96 29.98 6.70Q29.86 6.43 29.35 6.31L29.35 6.31L28.32 6.07L28.54 4.97L33.48 4.97L33.48 6.10L32.59 6.29Q32.14 6.38 31.92 6.64Q31.70 6.89 31.49 7.58L31.49 7.58L28.58 17.14L26.06 17.14L23.45 7.25L23.33 7.25L20.66 17.14ZM38.26 17.47L38.26 17.47Q36.74 17.47 35.82 16.58Q34.90 15.70 34.90 14.23L34.90 14.23Q34.90 12.91 35.56 12.10Q36.22 11.28 37.73 10.86Q39.24 10.44 41.78 10.32L41.78 10.32L41.78 8.69Q41.78 7.20 41.16 6.53Q40.54 5.86 39.19 5.86L39.19 5.86Q38.54 5.86 37.91 6.06Q37.27 6.26 36.98 6.58L36.98 6.58Q37.61 7.61 37.61 7.92L37.61 7.92Q37.61 8.38 37.24 8.69Q36.86 9.00 36.31 9.00L36.31 9.00Q35.66 9.00 35.30 8.68Q34.94 8.35 34.94 7.75L34.94 7.75Q34.94 6.91 35.58 6.20Q36.22 5.50 37.26 5.06Q38.30 4.63 39.53 4.63L39.53 4.63Q41.81 4.63 42.91 5.69Q44.02 6.74 44.02 8.95L44.02 8.95L44.02 14.74Q44.02 15.79 45.10 15.79L45.10 15.79Q45.36 15.79 45.62 15.74Q45.89 15.70 46.22 15.60L46.22 15.60L46.46 16.51Q46.03 16.92 45.41 17.20Q44.78 17.47 44.26 17.47L44.26 17.47Q43.22 17.47 42.66 16.93Q42.10 16.39 41.98 15.34L41.98 15.34Q40.63 17.47 38.26 17.47ZM39.17 15.82L39.17 15.82Q40.30 15.82 41.04 15.08Q41.78 14.35 41.78 13.27L41.78 13.27L41.78 11.57Q39.46 11.57 38.34 12.16Q37.22 12.74 37.22 13.97L37.22 13.97Q37.22 14.83 37.75 15.32Q38.28 15.82 39.17 15.82ZM54.58 17.14L47.90 17.14L47.90 15.98L49.06 15.77Q49.44 15.70 49.56 15.47Q49.68 15.24 49.68 14.62L49.68 14.62L49.68 7.90Q49.68 7.03 49.54 6.77Q49.39 6.50 48.86 6.41L48.86 6.41L47.69 6.24L47.86 5.06L51.10 4.80L51.38 4.97L51.65 7.13L51.72 7.13Q53.16 4.63 55.30 4.63L55.30 4.63Q56.42 4.63 57.10 5.26Q57.77 5.88 57.77 6.94L57.77 6.94Q57.77 7.87 57.36 8.35Q56.95 8.83 56.16 8.83L56.16 8.83Q55.49 8.83 55.12 8.56Q54.74 8.28 54.74 7.78L54.74 7.78Q54.74 7.51 54.85 7.18Q54.96 6.84 55.20 6.38L55.20 6.38Q54.67 6.12 54.10 6.30Q53.52 6.48 53.03 7.00Q52.54 7.51 52.22 8.24Q51.91 8.98 51.91 9.79L51.91 9.79L51.91 14.66Q51.91 15.26 52.02 15.44Q52.13 15.62 52.51 15.70L52.51 15.70L54.58 16.01L54.58 17.14ZM64.78 17.47L64.78 17.47Q63.02 17.47 61.74 16.70Q60.46 15.94 59.75 14.52Q59.04 13.10 59.04 11.21L59.04 11.21Q59.04 9.22 59.77 7.74Q60.50 6.26 61.82 5.45Q63.14 4.63 64.90 4.63L64.90 4.63Q66.89 4.63 68.10 5.80Q69.31 6.96 69.31 8.88L69.31 8.88Q69.31 9.38 69.23 9.98Q69.14 10.58 68.98 11.23L68.98 11.23L61.46 11.23Q61.54 13.34 62.56 14.52Q63.58 15.70 65.33 15.70L65.33 15.70Q66.24 15.70 67.10 15.31Q67.97 14.93 68.64 14.26L68.64 14.26L69.48 15.10Q68.95 15.82 68.20 16.36Q67.44 16.90 66.56 17.18Q65.69 17.47 64.78 17.47ZM61.46 9.89L61.46 9.89L66.98 9.89Q67.03 9.65 67.04 9.37Q67.06 9.10 67.06 8.78L67.06 8.78Q67.06 7.37 66.44 6.64Q65.83 5.90 64.63 5.90L64.63 5.90Q63.26 5.90 62.46 6.92Q61.66 7.94 61.46 9.89ZM76.49 22.63L76.49 22.63Q74.66 22.63 73.44 22.31Q72.22 21.98 71.60 21.32Q70.99 20.66 70.99 19.68L70.99 19.68Q70.99 18.77 71.52 18.12Q72.05 17.47 73.18 16.94L73.18 16.94L73.18 16.85Q72.58 16.66 72.18 16.13Q71.78 15.60 71.78 15L71.78 15Q71.78 14.35 72.11 13.79Q72.43 13.22 73.34 12.26L73.34 12.26L73.34 12.19Q72.46 11.74 72.01 10.91Q71.57 10.08 71.57 8.90L71.57 8.90Q71.57 7.61 72.18 6.65Q72.79 5.69 73.92 5.16Q75.05 4.63 76.54 4.63L76.54 4.63Q77.40 4.63 78.22 4.84Q79.03 5.04 79.66 5.42L79.66 5.42Q79.92 4.70 80.29 4.20Q80.66 3.70 81.14 3.43Q81.62 3.17 82.15 3.17L82.15 3.17Q82.85 3.17 83.30 3.53Q83.76 3.89 83.76 4.44L83.76 4.44Q83.76 4.97 83.35 5.38Q82.94 5.78 82.39 5.78L82.39 5.78Q82.08 5.78 81.84 5.62Q81.60 5.45 81.43 5.14L81.43 5.14L81.19 4.63Q80.81 5.23 80.50 6.14L80.50 6.14Q80.95 6.67 81.18 7.34Q81.41 8.02 81.41 8.78L81.41 8.78Q81.41 10.68 80.09 11.82Q78.77 12.96 76.56 12.96L76.56 12.96Q76.03 12.96 75.47 12.89Q74.90 12.82 74.62 12.72L74.62 12.72Q74.18 13.20 74.02 13.51Q73.85 13.82 73.85 14.16L73.85 14.16Q73.85 14.69 74.24 14.92Q74.64 15.14 75.53 15.14L75.53 15.14L78.60 15.14Q80.06 15.14 81.00 15.47Q81.94 15.79 82.39 16.48Q82.85 17.16 82.85 18.24L82.85 18.24Q82.85 19.27 82.43 20.09Q82.01 20.90 81.18 21.48Q80.35 22.06 79.18 22.34Q78.00 22.63 76.49 22.63ZM76.68 21.12L76.68 21.12Q78.53 21.12 79.55 20.51Q80.57 19.90 80.57 18.82L80.57 18.82Q80.57 18.07 80.02 17.70Q79.46 17.33 78.34 17.33L78.34 17.33L74.30 17.33Q73.75 17.74 73.48 18.23Q73.20 18.72 73.20 19.32L73.20 19.32Q73.20 20.28 74.00 20.70Q74.81 21.12 76.68 21.12ZM76.51 11.69L76.51 11.69Q77.78 11.69 78.46 10.94Q79.13 10.20 79.13 8.86L79.13 8.86Q79.13 7.44 78.41 6.65Q77.69 5.86 76.37 5.86L76.37 5.86Q75.55 5.86 74.99 6.19Q74.42 6.53 74.14 7.18Q73.85 7.82 73.85 8.78L73.85 8.78Q73.85 10.10 74.57 10.90Q75.29 11.69 76.51 11.69ZM91.78 17.14L85.10 17.14L85.10 15.98L86.26 15.77Q86.64 15.70 86.76 15.47Q86.88 15.24 86.88 14.62L86.88 14.62L86.88 7.90Q86.88 7.03 86.74 6.77Q86.59 6.50 86.06 6.41L86.06 6.41L84.89 6.24L85.06 5.06L88.30 4.80L88.58 4.97L88.85 7.13L88.92 7.13Q90.36 4.63 92.50 4.63L92.50 4.63Q93.62 4.63 94.30 5.26Q94.97 5.88 94.97 6.94L94.97 6.94Q94.97 7.87 94.56 8.35Q94.15 8.83 93.36 8.83L93.36 8.83Q92.69 8.83 92.32 8.56Q91.94 8.28 91.94 7.78L91.94 7.78Q91.94 7.51 92.05 7.18Q92.16 6.84 92.40 6.38L92.40 6.38Q91.87 6.12 91.30 6.30Q90.72 6.48 90.23 7.00Q89.74 7.51 89.42 8.24Q89.11 8.98 89.11 9.79L89.11 9.79L89.11 14.66Q89.11 15.26 89.22 15.44Q89.33 15.62 89.71 15.70L89.71 15.70L91.78 16.01L91.78 17.14ZM99.74 17.47L99.74 17.47Q98.23 17.47 97.31 16.58Q96.38 15.70 96.38 14.23L96.38 14.23Q96.38 12.91 97.04 12.10Q97.70 11.28 99.22 10.86Q100.73 10.44 103.27 10.32L103.27 10.32L103.27 8.69Q103.27 7.20 102.65 6.53Q102.02 5.86 100.68 5.86L100.68 5.86Q100.03 5.86 99.40 6.06Q98.76 6.26 98.47 6.58L98.47 6.58Q99.10 7.61 99.10 7.92L99.10 7.92Q99.10 8.38 98.72 8.69Q98.35 9.00 97.80 9.00L97.80 9.00Q97.15 9.00 96.79 8.68Q96.43 8.35 96.43 7.75L96.43 7.75Q96.43 6.91 97.07 6.20Q97.70 5.50 98.75 5.06Q99.79 4.63 101.02 4.63L101.02 4.63Q103.30 4.63 104.40 5.69Q105.50 6.74 105.50 8.95L105.50 8.95L105.50 14.74Q105.50 15.79 106.58 15.79L106.58 15.79Q106.85 15.79 107.11 15.74Q107.38 15.70 107.71 15.60L107.71 15.60L107.95 16.51Q107.52 16.92 106.90 17.20Q106.27 17.47 105.74 17.47L105.74 17.47Q104.71 17.47 104.15 16.93Q103.58 16.39 103.46 15.34L103.46 15.34Q102.12 17.47 99.74 17.47ZM100.66 15.82L100.66 15.82Q101.78 15.82 102.53 15.08Q103.27 14.35 103.27 13.27L103.27 13.27L103.27 11.57Q100.94 11.57 99.83 12.16Q98.71 12.74 98.71 13.97L98.71 13.97Q98.71 14.83 99.24 15.32Q99.77 15.82 100.66 15.82ZM115.20 22.39L108.89 22.39L108.89 21.24L110.04 21.05Q110.42 20.98 110.58 20.72Q110.74 20.47 110.74 19.92L110.74 19.92L110.74 7.92Q110.74 7.01 110.57 6.72Q110.40 6.43 109.85 6.36L109.85 6.36L108.74 6.22L108.94 5.04L112.22 4.80L112.56 4.94L112.70 7.10L112.78 7.10Q113.62 5.83 114.67 5.23Q115.73 4.63 117.12 4.63L117.12 4.63Q119.30 4.63 120.54 6.23Q121.78 7.82 121.78 10.63L121.78 10.63Q121.78 12.79 121.12 14.33Q120.46 15.86 119.20 16.67Q117.94 17.47 116.16 17.47L116.16 17.47Q115.27 17.47 114.40 17.26Q113.52 17.04 112.97 16.68L112.97 16.68L112.97 19.85Q112.97 20.42 113.14 20.69Q113.30 20.95 113.74 21.02L113.74 21.02L115.20 21.26L115.20 22.39ZM115.99 15.89L115.99 15.89Q117.58 15.89 118.46 14.59Q119.35 13.30 119.35 10.97L119.35 10.97Q119.35 8.66 118.60 7.50Q117.84 6.34 116.35 6.34L116.35 6.34Q114.77 6.34 113.87 7.28Q112.97 8.23 112.97 9.86L112.97 9.86L112.97 14.86Q113.45 15.31 114.30 15.60Q115.15 15.89 115.99 15.89Z" transform="translate(0, 51.064)"></path></svg>